<mxfile host="app.diagrams.net" agent="Mozilla/5.0 (Windows NT 10.0; Win64; x64) AppleWebKit/537.36 (KHTML, like Gecko) Chrome/136.0.0.0 Safari/537.36" version="27.0.3">
  <diagram id="R2lEEEUBdFMjLlhIrx00" name="Page-1">
    <mxGraphModel dx="1303" dy="718" grid="1" gridSize="10" guides="1" tooltips="1" connect="1" arrows="1" fold="1" page="1" pageScale="1" pageWidth="850" pageHeight="1100" math="0" shadow="0" extFonts="Permanent Marker^https://fonts.googleapis.com/css?family=Permanent+Marker">
      <root>
        <mxCell id="0" />
        <mxCell id="1" parent="0" />
        <mxCell id="jT86jHlQjgebIUWQx6Aq-87" value="" style="group" vertex="1" connectable="0" parent="1">
          <mxGeometry x="40" y="39.15" width="762.5" height="703.85" as="geometry" />
        </mxCell>
        <mxCell id="C-vyLk0tnHw3VtMMgP7b-2" value="Kelas" style="shape=table;startSize=30;container=1;collapsible=1;childLayout=tableLayout;fixedRows=1;rowLines=0;fontStyle=1;align=center;resizeLast=1;" parent="jT86jHlQjgebIUWQx6Aq-87" vertex="1">
          <mxGeometry x="469.23" width="293.27" height="150" as="geometry" />
        </mxCell>
        <mxCell id="C-vyLk0tnHw3VtMMgP7b-3" value="" style="shape=partialRectangle;collapsible=0;dropTarget=0;pointerEvents=0;fillColor=none;points=[[0,0.5],[1,0.5]];portConstraint=eastwest;top=0;left=0;right=0;bottom=1;" parent="C-vyLk0tnHw3VtMMgP7b-2" vertex="1">
          <mxGeometry y="30" width="293.27" height="30" as="geometry" />
        </mxCell>
        <mxCell id="C-vyLk0tnHw3VtMMgP7b-4" value="PK" style="shape=partialRectangle;overflow=hidden;connectable=0;fillColor=none;top=0;left=0;bottom=0;right=0;fontStyle=1;" parent="C-vyLk0tnHw3VtMMgP7b-3" vertex="1">
          <mxGeometry width="30" height="30" as="geometry">
            <mxRectangle width="30" height="30" as="alternateBounds" />
          </mxGeometry>
        </mxCell>
        <mxCell id="C-vyLk0tnHw3VtMMgP7b-5" value="kelas_id int NOT NULL " style="shape=partialRectangle;overflow=hidden;connectable=0;fillColor=none;top=0;left=0;bottom=0;right=0;align=left;spacingLeft=6;fontStyle=5;" parent="C-vyLk0tnHw3VtMMgP7b-3" vertex="1">
          <mxGeometry x="30" width="263.27" height="30" as="geometry">
            <mxRectangle width="263.27" height="30" as="alternateBounds" />
          </mxGeometry>
        </mxCell>
        <mxCell id="C-vyLk0tnHw3VtMMgP7b-6" value="" style="shape=partialRectangle;collapsible=0;dropTarget=0;pointerEvents=0;fillColor=none;points=[[0,0.5],[1,0.5]];portConstraint=eastwest;top=0;left=0;right=0;bottom=0;" parent="C-vyLk0tnHw3VtMMgP7b-2" vertex="1">
          <mxGeometry y="60" width="293.27" height="30" as="geometry" />
        </mxCell>
        <mxCell id="C-vyLk0tnHw3VtMMgP7b-7" value="FK1" style="shape=partialRectangle;overflow=hidden;connectable=0;fillColor=none;top=0;left=0;bottom=0;right=0;" parent="C-vyLk0tnHw3VtMMgP7b-6" vertex="1">
          <mxGeometry width="30" height="30" as="geometry">
            <mxRectangle width="30" height="30" as="alternateBounds" />
          </mxGeometry>
        </mxCell>
        <mxCell id="C-vyLk0tnHw3VtMMgP7b-8" value="mata_kuliah_id int NOT NULL" style="shape=partialRectangle;overflow=hidden;connectable=0;fillColor=none;top=0;left=0;bottom=0;right=0;align=left;spacingLeft=6;" parent="C-vyLk0tnHw3VtMMgP7b-6" vertex="1">
          <mxGeometry x="30" width="263.27" height="30" as="geometry">
            <mxRectangle width="263.27" height="30" as="alternateBounds" />
          </mxGeometry>
        </mxCell>
        <mxCell id="C-vyLk0tnHw3VtMMgP7b-9" value="" style="shape=partialRectangle;collapsible=0;dropTarget=0;pointerEvents=0;fillColor=none;points=[[0,0.5],[1,0.5]];portConstraint=eastwest;top=0;left=0;right=0;bottom=0;" parent="C-vyLk0tnHw3VtMMgP7b-2" vertex="1">
          <mxGeometry y="90" width="293.27" height="30" as="geometry" />
        </mxCell>
        <mxCell id="C-vyLk0tnHw3VtMMgP7b-10" value="FK2" style="shape=partialRectangle;overflow=hidden;connectable=0;fillColor=none;top=0;left=0;bottom=0;right=0;" parent="C-vyLk0tnHw3VtMMgP7b-9" vertex="1">
          <mxGeometry width="30" height="30" as="geometry">
            <mxRectangle width="30" height="30" as="alternateBounds" />
          </mxGeometry>
        </mxCell>
        <mxCell id="C-vyLk0tnHw3VtMMgP7b-11" value="dosen_id int NOT NULL" style="shape=partialRectangle;overflow=hidden;connectable=0;fillColor=none;top=0;left=0;bottom=0;right=0;align=left;spacingLeft=6;" parent="C-vyLk0tnHw3VtMMgP7b-9" vertex="1">
          <mxGeometry x="30" width="263.27" height="30" as="geometry">
            <mxRectangle width="263.27" height="30" as="alternateBounds" />
          </mxGeometry>
        </mxCell>
        <mxCell id="jT86jHlQjgebIUWQx6Aq-54" value="" style="shape=partialRectangle;collapsible=0;dropTarget=0;pointerEvents=0;fillColor=none;points=[[0,0.5],[1,0.5]];portConstraint=eastwest;top=0;left=0;right=0;bottom=0;" vertex="1" parent="C-vyLk0tnHw3VtMMgP7b-2">
          <mxGeometry y="120" width="293.27" height="30" as="geometry" />
        </mxCell>
        <mxCell id="jT86jHlQjgebIUWQx6Aq-55" value="" style="shape=partialRectangle;overflow=hidden;connectable=0;fillColor=none;top=0;left=0;bottom=0;right=0;" vertex="1" parent="jT86jHlQjgebIUWQx6Aq-54">
          <mxGeometry width="30" height="30" as="geometry">
            <mxRectangle width="30" height="30" as="alternateBounds" />
          </mxGeometry>
        </mxCell>
        <mxCell id="jT86jHlQjgebIUWQx6Aq-56" value="tahun_akademik DATE" style="shape=partialRectangle;overflow=hidden;connectable=0;fillColor=none;top=0;left=0;bottom=0;right=0;align=left;spacingLeft=6;" vertex="1" parent="jT86jHlQjgebIUWQx6Aq-54">
          <mxGeometry x="30" width="263.27" height="30" as="geometry">
            <mxRectangle width="263.27" height="30" as="alternateBounds" />
          </mxGeometry>
        </mxCell>
        <mxCell id="C-vyLk0tnHw3VtMMgP7b-23" value="Mahasiswa" style="shape=table;startSize=30;container=1;collapsible=1;childLayout=tableLayout;fixedRows=1;rowLines=0;fontStyle=1;align=center;resizeLast=1;" parent="jT86jHlQjgebIUWQx6Aq-87" vertex="1">
          <mxGeometry width="293.27" height="180" as="geometry" />
        </mxCell>
        <mxCell id="C-vyLk0tnHw3VtMMgP7b-24" value="" style="shape=partialRectangle;collapsible=0;dropTarget=0;pointerEvents=0;fillColor=none;points=[[0,0.5],[1,0.5]];portConstraint=eastwest;top=0;left=0;right=0;bottom=1;" parent="C-vyLk0tnHw3VtMMgP7b-23" vertex="1">
          <mxGeometry y="30" width="293.27" height="30" as="geometry" />
        </mxCell>
        <mxCell id="C-vyLk0tnHw3VtMMgP7b-25" value="PK" style="shape=partialRectangle;overflow=hidden;connectable=0;fillColor=none;top=0;left=0;bottom=0;right=0;fontStyle=1;" parent="C-vyLk0tnHw3VtMMgP7b-24" vertex="1">
          <mxGeometry width="30" height="30" as="geometry">
            <mxRectangle width="30" height="30" as="alternateBounds" />
          </mxGeometry>
        </mxCell>
        <mxCell id="C-vyLk0tnHw3VtMMgP7b-26" value="mahasiswa_id (int) NOT NULL" style="shape=partialRectangle;overflow=hidden;connectable=0;fillColor=none;top=0;left=0;bottom=0;right=0;align=left;spacingLeft=6;fontStyle=5;" parent="C-vyLk0tnHw3VtMMgP7b-24" vertex="1">
          <mxGeometry x="30" width="263.27" height="30" as="geometry">
            <mxRectangle width="263.27" height="30" as="alternateBounds" />
          </mxGeometry>
        </mxCell>
        <mxCell id="C-vyLk0tnHw3VtMMgP7b-27" value="" style="shape=partialRectangle;collapsible=0;dropTarget=0;pointerEvents=0;fillColor=none;points=[[0,0.5],[1,0.5]];portConstraint=eastwest;top=0;left=0;right=0;bottom=0;" parent="C-vyLk0tnHw3VtMMgP7b-23" vertex="1">
          <mxGeometry y="60" width="293.27" height="30" as="geometry" />
        </mxCell>
        <mxCell id="C-vyLk0tnHw3VtMMgP7b-28" value="" style="shape=partialRectangle;overflow=hidden;connectable=0;fillColor=none;top=0;left=0;bottom=0;right=0;" parent="C-vyLk0tnHw3VtMMgP7b-27" vertex="1">
          <mxGeometry width="30" height="30" as="geometry">
            <mxRectangle width="30" height="30" as="alternateBounds" />
          </mxGeometry>
        </mxCell>
        <mxCell id="C-vyLk0tnHw3VtMMgP7b-29" value="nama VARCHAR (25) " style="shape=partialRectangle;overflow=hidden;connectable=0;fillColor=none;top=0;left=0;bottom=0;right=0;align=left;spacingLeft=6;" parent="C-vyLk0tnHw3VtMMgP7b-27" vertex="1">
          <mxGeometry x="30" width="263.27" height="30" as="geometry">
            <mxRectangle width="263.27" height="30" as="alternateBounds" />
          </mxGeometry>
        </mxCell>
        <mxCell id="jT86jHlQjgebIUWQx6Aq-33" value="" style="shape=partialRectangle;collapsible=0;dropTarget=0;pointerEvents=0;fillColor=none;points=[[0,0.5],[1,0.5]];portConstraint=eastwest;top=0;left=0;right=0;bottom=0;" vertex="1" parent="C-vyLk0tnHw3VtMMgP7b-23">
          <mxGeometry y="90" width="293.27" height="30" as="geometry" />
        </mxCell>
        <mxCell id="jT86jHlQjgebIUWQx6Aq-34" value="" style="shape=partialRectangle;overflow=hidden;connectable=0;fillColor=none;top=0;left=0;bottom=0;right=0;" vertex="1" parent="jT86jHlQjgebIUWQx6Aq-33">
          <mxGeometry width="30" height="30" as="geometry">
            <mxRectangle width="30" height="30" as="alternateBounds" />
          </mxGeometry>
        </mxCell>
        <mxCell id="jT86jHlQjgebIUWQx6Aq-35" value="alamat VARCHAR (50)" style="shape=partialRectangle;overflow=hidden;connectable=0;fillColor=none;top=0;left=0;bottom=0;right=0;align=left;spacingLeft=6;" vertex="1" parent="jT86jHlQjgebIUWQx6Aq-33">
          <mxGeometry x="30" width="263.27" height="30" as="geometry">
            <mxRectangle width="263.27" height="30" as="alternateBounds" />
          </mxGeometry>
        </mxCell>
        <mxCell id="jT86jHlQjgebIUWQx6Aq-36" value="" style="shape=partialRectangle;collapsible=0;dropTarget=0;pointerEvents=0;fillColor=none;points=[[0,0.5],[1,0.5]];portConstraint=eastwest;top=0;left=0;right=0;bottom=0;" vertex="1" parent="C-vyLk0tnHw3VtMMgP7b-23">
          <mxGeometry y="120" width="293.27" height="30" as="geometry" />
        </mxCell>
        <mxCell id="jT86jHlQjgebIUWQx6Aq-37" value="" style="shape=partialRectangle;overflow=hidden;connectable=0;fillColor=none;top=0;left=0;bottom=0;right=0;" vertex="1" parent="jT86jHlQjgebIUWQx6Aq-36">
          <mxGeometry width="30" height="30" as="geometry">
            <mxRectangle width="30" height="30" as="alternateBounds" />
          </mxGeometry>
        </mxCell>
        <mxCell id="jT86jHlQjgebIUWQx6Aq-38" value="tanggal_lahir DATE" style="shape=partialRectangle;overflow=hidden;connectable=0;fillColor=none;top=0;left=0;bottom=0;right=0;align=left;spacingLeft=6;" vertex="1" parent="jT86jHlQjgebIUWQx6Aq-36">
          <mxGeometry x="30" width="263.27" height="30" as="geometry">
            <mxRectangle width="263.27" height="30" as="alternateBounds" />
          </mxGeometry>
        </mxCell>
        <mxCell id="jT86jHlQjgebIUWQx6Aq-39" value="" style="shape=partialRectangle;collapsible=0;dropTarget=0;pointerEvents=0;fillColor=none;points=[[0,0.5],[1,0.5]];portConstraint=eastwest;top=0;left=0;right=0;bottom=0;" vertex="1" parent="C-vyLk0tnHw3VtMMgP7b-23">
          <mxGeometry y="150" width="293.27" height="30" as="geometry" />
        </mxCell>
        <mxCell id="jT86jHlQjgebIUWQx6Aq-40" value="" style="shape=partialRectangle;overflow=hidden;connectable=0;fillColor=none;top=0;left=0;bottom=0;right=0;" vertex="1" parent="jT86jHlQjgebIUWQx6Aq-39">
          <mxGeometry width="30" height="30" as="geometry">
            <mxRectangle width="30" height="30" as="alternateBounds" />
          </mxGeometry>
        </mxCell>
        <mxCell id="jT86jHlQjgebIUWQx6Aq-41" value="noHP VARCHAR (12)" style="shape=partialRectangle;overflow=hidden;connectable=0;fillColor=none;top=0;left=0;bottom=0;right=0;align=left;spacingLeft=6;" vertex="1" parent="jT86jHlQjgebIUWQx6Aq-39">
          <mxGeometry x="30" width="263.27" height="30" as="geometry">
            <mxRectangle width="263.27" height="30" as="alternateBounds" />
          </mxGeometry>
        </mxCell>
        <mxCell id="jT86jHlQjgebIUWQx6Aq-1" value="Dosen" style="shape=table;startSize=30;container=1;collapsible=1;childLayout=tableLayout;fixedRows=1;rowLines=0;fontStyle=1;align=center;resizeLast=1;" vertex="1" parent="jT86jHlQjgebIUWQx6Aq-87">
          <mxGeometry y="269.81" width="293.27" height="150.19" as="geometry" />
        </mxCell>
        <mxCell id="jT86jHlQjgebIUWQx6Aq-2" value="" style="shape=partialRectangle;collapsible=0;dropTarget=0;pointerEvents=0;fillColor=none;points=[[0,0.5],[1,0.5]];portConstraint=eastwest;top=0;left=0;right=0;bottom=1;" vertex="1" parent="jT86jHlQjgebIUWQx6Aq-1">
          <mxGeometry y="30" width="293.27" height="30" as="geometry" />
        </mxCell>
        <mxCell id="jT86jHlQjgebIUWQx6Aq-3" value="PK" style="shape=partialRectangle;overflow=hidden;connectable=0;fillColor=none;top=0;left=0;bottom=0;right=0;fontStyle=1;" vertex="1" parent="jT86jHlQjgebIUWQx6Aq-2">
          <mxGeometry width="30" height="30" as="geometry">
            <mxRectangle width="30" height="30" as="alternateBounds" />
          </mxGeometry>
        </mxCell>
        <mxCell id="jT86jHlQjgebIUWQx6Aq-4" value="dosen_id (int) NOT NULL" style="shape=partialRectangle;overflow=hidden;connectable=0;fillColor=none;top=0;left=0;bottom=0;right=0;align=left;spacingLeft=6;fontStyle=5;" vertex="1" parent="jT86jHlQjgebIUWQx6Aq-2">
          <mxGeometry x="30" width="263.27" height="30" as="geometry">
            <mxRectangle width="263.27" height="30" as="alternateBounds" />
          </mxGeometry>
        </mxCell>
        <mxCell id="jT86jHlQjgebIUWQx6Aq-5" value="" style="shape=partialRectangle;collapsible=0;dropTarget=0;pointerEvents=0;fillColor=none;points=[[0,0.5],[1,0.5]];portConstraint=eastwest;top=0;left=0;right=0;bottom=0;" vertex="1" parent="jT86jHlQjgebIUWQx6Aq-1">
          <mxGeometry y="60" width="293.27" height="30" as="geometry" />
        </mxCell>
        <mxCell id="jT86jHlQjgebIUWQx6Aq-6" value="" style="shape=partialRectangle;overflow=hidden;connectable=0;fillColor=none;top=0;left=0;bottom=0;right=0;" vertex="1" parent="jT86jHlQjgebIUWQx6Aq-5">
          <mxGeometry width="30" height="30" as="geometry">
            <mxRectangle width="30" height="30" as="alternateBounds" />
          </mxGeometry>
        </mxCell>
        <mxCell id="jT86jHlQjgebIUWQx6Aq-7" value="nama VARCHAR (25) " style="shape=partialRectangle;overflow=hidden;connectable=0;fillColor=none;top=0;left=0;bottom=0;right=0;align=left;spacingLeft=6;" vertex="1" parent="jT86jHlQjgebIUWQx6Aq-5">
          <mxGeometry x="30" width="263.27" height="30" as="geometry">
            <mxRectangle width="263.27" height="30" as="alternateBounds" />
          </mxGeometry>
        </mxCell>
        <mxCell id="jT86jHlQjgebIUWQx6Aq-42" value="" style="shape=partialRectangle;collapsible=0;dropTarget=0;pointerEvents=0;fillColor=none;points=[[0,0.5],[1,0.5]];portConstraint=eastwest;top=0;left=0;right=0;bottom=0;" vertex="1" parent="jT86jHlQjgebIUWQx6Aq-1">
          <mxGeometry y="90" width="293.27" height="30" as="geometry" />
        </mxCell>
        <mxCell id="jT86jHlQjgebIUWQx6Aq-43" value="" style="shape=partialRectangle;overflow=hidden;connectable=0;fillColor=none;top=0;left=0;bottom=0;right=0;" vertex="1" parent="jT86jHlQjgebIUWQx6Aq-42">
          <mxGeometry width="30" height="30" as="geometry">
            <mxRectangle width="30" height="30" as="alternateBounds" />
          </mxGeometry>
        </mxCell>
        <mxCell id="jT86jHlQjgebIUWQx6Aq-44" value="email VARCHAR (30) " style="shape=partialRectangle;overflow=hidden;connectable=0;fillColor=none;top=0;left=0;bottom=0;right=0;align=left;spacingLeft=6;" vertex="1" parent="jT86jHlQjgebIUWQx6Aq-42">
          <mxGeometry x="30" width="263.27" height="30" as="geometry">
            <mxRectangle width="263.27" height="30" as="alternateBounds" />
          </mxGeometry>
        </mxCell>
        <mxCell id="jT86jHlQjgebIUWQx6Aq-45" value="" style="shape=partialRectangle;collapsible=0;dropTarget=0;pointerEvents=0;fillColor=none;points=[[0,0.5],[1,0.5]];portConstraint=eastwest;top=0;left=0;right=0;bottom=0;" vertex="1" parent="jT86jHlQjgebIUWQx6Aq-1">
          <mxGeometry y="120" width="293.27" height="30" as="geometry" />
        </mxCell>
        <mxCell id="jT86jHlQjgebIUWQx6Aq-46" value="" style="shape=partialRectangle;overflow=hidden;connectable=0;fillColor=none;top=0;left=0;bottom=0;right=0;" vertex="1" parent="jT86jHlQjgebIUWQx6Aq-45">
          <mxGeometry width="30" height="30" as="geometry">
            <mxRectangle width="30" height="30" as="alternateBounds" />
          </mxGeometry>
        </mxCell>
        <mxCell id="jT86jHlQjgebIUWQx6Aq-47" value="noHP VARCHAR (12) " style="shape=partialRectangle;overflow=hidden;connectable=0;fillColor=none;top=0;left=0;bottom=0;right=0;align=left;spacingLeft=6;" vertex="1" parent="jT86jHlQjgebIUWQx6Aq-45">
          <mxGeometry x="30" width="263.27" height="30" as="geometry">
            <mxRectangle width="263.27" height="30" as="alternateBounds" />
          </mxGeometry>
        </mxCell>
        <mxCell id="jT86jHlQjgebIUWQx6Aq-8" value="Mata Kuliah" style="shape=table;startSize=30;container=1;collapsible=1;childLayout=tableLayout;fixedRows=1;rowLines=0;fontStyle=1;align=center;resizeLast=1;" vertex="1" parent="jT86jHlQjgebIUWQx6Aq-87">
          <mxGeometry y="516.16" width="293.27" height="153.84" as="geometry" />
        </mxCell>
        <mxCell id="jT86jHlQjgebIUWQx6Aq-9" value="" style="shape=partialRectangle;collapsible=0;dropTarget=0;pointerEvents=0;fillColor=none;points=[[0,0.5],[1,0.5]];portConstraint=eastwest;top=0;left=0;right=0;bottom=1;" vertex="1" parent="jT86jHlQjgebIUWQx6Aq-8">
          <mxGeometry y="30" width="293.27" height="30" as="geometry" />
        </mxCell>
        <mxCell id="jT86jHlQjgebIUWQx6Aq-10" value="PK" style="shape=partialRectangle;overflow=hidden;connectable=0;fillColor=none;top=0;left=0;bottom=0;right=0;fontStyle=1;" vertex="1" parent="jT86jHlQjgebIUWQx6Aq-9">
          <mxGeometry width="30" height="30" as="geometry">
            <mxRectangle width="30" height="30" as="alternateBounds" />
          </mxGeometry>
        </mxCell>
        <mxCell id="jT86jHlQjgebIUWQx6Aq-11" value="mata_kuliah_id (int) NOT NULL" style="shape=partialRectangle;overflow=hidden;connectable=0;fillColor=none;top=0;left=0;bottom=0;right=0;align=left;spacingLeft=6;fontStyle=5;" vertex="1" parent="jT86jHlQjgebIUWQx6Aq-9">
          <mxGeometry x="30" width="263.27" height="30" as="geometry">
            <mxRectangle width="263.27" height="30" as="alternateBounds" />
          </mxGeometry>
        </mxCell>
        <mxCell id="jT86jHlQjgebIUWQx6Aq-12" value="" style="shape=partialRectangle;collapsible=0;dropTarget=0;pointerEvents=0;fillColor=none;points=[[0,0.5],[1,0.5]];portConstraint=eastwest;top=0;left=0;right=0;bottom=0;" vertex="1" parent="jT86jHlQjgebIUWQx6Aq-8">
          <mxGeometry y="60" width="293.27" height="30" as="geometry" />
        </mxCell>
        <mxCell id="jT86jHlQjgebIUWQx6Aq-13" value="" style="shape=partialRectangle;overflow=hidden;connectable=0;fillColor=none;top=0;left=0;bottom=0;right=0;" vertex="1" parent="jT86jHlQjgebIUWQx6Aq-12">
          <mxGeometry width="30" height="30" as="geometry">
            <mxRectangle width="30" height="30" as="alternateBounds" />
          </mxGeometry>
        </mxCell>
        <mxCell id="jT86jHlQjgebIUWQx6Aq-14" value="nama_MK VARCHAR (25) " style="shape=partialRectangle;overflow=hidden;connectable=0;fillColor=none;top=0;left=0;bottom=0;right=0;align=left;spacingLeft=6;" vertex="1" parent="jT86jHlQjgebIUWQx6Aq-12">
          <mxGeometry x="30" width="263.27" height="30" as="geometry">
            <mxRectangle width="263.27" height="30" as="alternateBounds" />
          </mxGeometry>
        </mxCell>
        <mxCell id="jT86jHlQjgebIUWQx6Aq-48" value="" style="shape=partialRectangle;collapsible=0;dropTarget=0;pointerEvents=0;fillColor=none;points=[[0,0.5],[1,0.5]];portConstraint=eastwest;top=0;left=0;right=0;bottom=0;" vertex="1" parent="jT86jHlQjgebIUWQx6Aq-8">
          <mxGeometry y="90" width="293.27" height="30" as="geometry" />
        </mxCell>
        <mxCell id="jT86jHlQjgebIUWQx6Aq-49" value="" style="shape=partialRectangle;overflow=hidden;connectable=0;fillColor=none;top=0;left=0;bottom=0;right=0;" vertex="1" parent="jT86jHlQjgebIUWQx6Aq-48">
          <mxGeometry width="30" height="30" as="geometry">
            <mxRectangle width="30" height="30" as="alternateBounds" />
          </mxGeometry>
        </mxCell>
        <mxCell id="jT86jHlQjgebIUWQx6Aq-50" value="sks INT" style="shape=partialRectangle;overflow=hidden;connectable=0;fillColor=none;top=0;left=0;bottom=0;right=0;align=left;spacingLeft=6;" vertex="1" parent="jT86jHlQjgebIUWQx6Aq-48">
          <mxGeometry x="30" width="263.27" height="30" as="geometry">
            <mxRectangle width="263.27" height="30" as="alternateBounds" />
          </mxGeometry>
        </mxCell>
        <mxCell id="jT86jHlQjgebIUWQx6Aq-51" value="" style="shape=partialRectangle;collapsible=0;dropTarget=0;pointerEvents=0;fillColor=none;points=[[0,0.5],[1,0.5]];portConstraint=eastwest;top=0;left=0;right=0;bottom=0;" vertex="1" parent="jT86jHlQjgebIUWQx6Aq-8">
          <mxGeometry y="120" width="293.27" height="30" as="geometry" />
        </mxCell>
        <mxCell id="jT86jHlQjgebIUWQx6Aq-52" value="" style="shape=partialRectangle;overflow=hidden;connectable=0;fillColor=none;top=0;left=0;bottom=0;right=0;" vertex="1" parent="jT86jHlQjgebIUWQx6Aq-51">
          <mxGeometry width="30" height="30" as="geometry">
            <mxRectangle width="30" height="30" as="alternateBounds" />
          </mxGeometry>
        </mxCell>
        <mxCell id="jT86jHlQjgebIUWQx6Aq-53" value="semester INT" style="shape=partialRectangle;overflow=hidden;connectable=0;fillColor=none;top=0;left=0;bottom=0;right=0;align=left;spacingLeft=6;" vertex="1" parent="jT86jHlQjgebIUWQx6Aq-51">
          <mxGeometry x="30" width="263.27" height="30" as="geometry">
            <mxRectangle width="263.27" height="30" as="alternateBounds" />
          </mxGeometry>
        </mxCell>
        <mxCell id="jT86jHlQjgebIUWQx6Aq-15" value="Nilai" style="shape=table;startSize=30;container=1;collapsible=1;childLayout=tableLayout;fixedRows=1;rowLines=0;fontStyle=1;align=center;resizeLast=1;" vertex="1" parent="jT86jHlQjgebIUWQx6Aq-87">
          <mxGeometry x="469.23" y="235.79" width="293.27" height="154.21" as="geometry" />
        </mxCell>
        <mxCell id="jT86jHlQjgebIUWQx6Aq-16" value="" style="shape=partialRectangle;collapsible=0;dropTarget=0;pointerEvents=0;fillColor=none;points=[[0,0.5],[1,0.5]];portConstraint=eastwest;top=0;left=0;right=0;bottom=1;" vertex="1" parent="jT86jHlQjgebIUWQx6Aq-15">
          <mxGeometry y="30" width="293.27" height="30" as="geometry" />
        </mxCell>
        <mxCell id="jT86jHlQjgebIUWQx6Aq-17" value="PK" style="shape=partialRectangle;overflow=hidden;connectable=0;fillColor=none;top=0;left=0;bottom=0;right=0;fontStyle=1;" vertex="1" parent="jT86jHlQjgebIUWQx6Aq-16">
          <mxGeometry width="30" height="30" as="geometry">
            <mxRectangle width="30" height="30" as="alternateBounds" />
          </mxGeometry>
        </mxCell>
        <mxCell id="jT86jHlQjgebIUWQx6Aq-18" value="nilai_id int NOT NULL " style="shape=partialRectangle;overflow=hidden;connectable=0;fillColor=none;top=0;left=0;bottom=0;right=0;align=left;spacingLeft=6;fontStyle=5;" vertex="1" parent="jT86jHlQjgebIUWQx6Aq-16">
          <mxGeometry x="30" width="263.27" height="30" as="geometry">
            <mxRectangle width="263.27" height="30" as="alternateBounds" />
          </mxGeometry>
        </mxCell>
        <mxCell id="jT86jHlQjgebIUWQx6Aq-19" value="" style="shape=partialRectangle;collapsible=0;dropTarget=0;pointerEvents=0;fillColor=none;points=[[0,0.5],[1,0.5]];portConstraint=eastwest;top=0;left=0;right=0;bottom=0;" vertex="1" parent="jT86jHlQjgebIUWQx6Aq-15">
          <mxGeometry y="60" width="293.27" height="30" as="geometry" />
        </mxCell>
        <mxCell id="jT86jHlQjgebIUWQx6Aq-20" value="FK1" style="shape=partialRectangle;overflow=hidden;connectable=0;fillColor=none;top=0;left=0;bottom=0;right=0;" vertex="1" parent="jT86jHlQjgebIUWQx6Aq-19">
          <mxGeometry width="30" height="30" as="geometry">
            <mxRectangle width="30" height="30" as="alternateBounds" />
          </mxGeometry>
        </mxCell>
        <mxCell id="jT86jHlQjgebIUWQx6Aq-21" value="mahasiswa_id int NOT NULL" style="shape=partialRectangle;overflow=hidden;connectable=0;fillColor=none;top=0;left=0;bottom=0;right=0;align=left;spacingLeft=6;" vertex="1" parent="jT86jHlQjgebIUWQx6Aq-19">
          <mxGeometry x="30" width="263.27" height="30" as="geometry">
            <mxRectangle width="263.27" height="30" as="alternateBounds" />
          </mxGeometry>
        </mxCell>
        <mxCell id="jT86jHlQjgebIUWQx6Aq-22" value="" style="shape=partialRectangle;collapsible=0;dropTarget=0;pointerEvents=0;fillColor=none;points=[[0,0.5],[1,0.5]];portConstraint=eastwest;top=0;left=0;right=0;bottom=0;" vertex="1" parent="jT86jHlQjgebIUWQx6Aq-15">
          <mxGeometry y="90" width="293.27" height="30" as="geometry" />
        </mxCell>
        <mxCell id="jT86jHlQjgebIUWQx6Aq-23" value="FK2" style="shape=partialRectangle;overflow=hidden;connectable=0;fillColor=none;top=0;left=0;bottom=0;right=0;" vertex="1" parent="jT86jHlQjgebIUWQx6Aq-22">
          <mxGeometry width="30" height="30" as="geometry">
            <mxRectangle width="30" height="30" as="alternateBounds" />
          </mxGeometry>
        </mxCell>
        <mxCell id="jT86jHlQjgebIUWQx6Aq-24" value="kelas_id int NOT NULL" style="shape=partialRectangle;overflow=hidden;connectable=0;fillColor=none;top=0;left=0;bottom=0;right=0;align=left;spacingLeft=6;" vertex="1" parent="jT86jHlQjgebIUWQx6Aq-22">
          <mxGeometry x="30" width="263.27" height="30" as="geometry">
            <mxRectangle width="263.27" height="30" as="alternateBounds" />
          </mxGeometry>
        </mxCell>
        <mxCell id="jT86jHlQjgebIUWQx6Aq-80" value="" style="shape=partialRectangle;collapsible=0;dropTarget=0;pointerEvents=0;fillColor=none;points=[[0,0.5],[1,0.5]];portConstraint=eastwest;top=0;left=0;right=0;bottom=0;" vertex="1" parent="jT86jHlQjgebIUWQx6Aq-15">
          <mxGeometry y="120" width="293.27" height="30" as="geometry" />
        </mxCell>
        <mxCell id="jT86jHlQjgebIUWQx6Aq-81" value="" style="shape=partialRectangle;overflow=hidden;connectable=0;fillColor=none;top=0;left=0;bottom=0;right=0;" vertex="1" parent="jT86jHlQjgebIUWQx6Aq-80">
          <mxGeometry width="30" height="30" as="geometry">
            <mxRectangle width="30" height="30" as="alternateBounds" />
          </mxGeometry>
        </mxCell>
        <mxCell id="jT86jHlQjgebIUWQx6Aq-82" value="nilai int" style="shape=partialRectangle;overflow=hidden;connectable=0;fillColor=none;top=0;left=0;bottom=0;right=0;align=left;spacingLeft=6;" vertex="1" parent="jT86jHlQjgebIUWQx6Aq-80">
          <mxGeometry x="30" width="263.27" height="30" as="geometry">
            <mxRectangle width="263.27" height="30" as="alternateBounds" />
          </mxGeometry>
        </mxCell>
        <mxCell id="jT86jHlQjgebIUWQx6Aq-83" value="" style="edgeStyle=entityRelationEdgeStyle;fontSize=12;html=1;endArrow=ERoneToMany;rounded=0;" edge="1" parent="jT86jHlQjgebIUWQx6Aq-87" source="C-vyLk0tnHw3VtMMgP7b-23" target="jT86jHlQjgebIUWQx6Aq-15">
          <mxGeometry width="100" height="100" relative="1" as="geometry">
            <mxPoint x="293.2692307692308" y="24.634750000000004" as="sourcePoint" />
            <mxPoint x="621.7307692307693" y="293.27083333333337" as="targetPoint" />
          </mxGeometry>
        </mxCell>
        <mxCell id="jT86jHlQjgebIUWQx6Aq-84" value="" style="edgeStyle=entityRelationEdgeStyle;fontSize=12;html=1;endArrow=ERmany;startArrow=ERmany;rounded=0;" edge="1" parent="jT86jHlQjgebIUWQx6Aq-87" source="jT86jHlQjgebIUWQx6Aq-15" target="C-vyLk0tnHw3VtMMgP7b-2">
          <mxGeometry width="100" height="100" relative="1" as="geometry">
            <mxPoint x="480.9615384615385" y="328.46333333333337" as="sourcePoint" />
            <mxPoint x="598.2692307692308" y="211.15500000000006" as="targetPoint" />
          </mxGeometry>
        </mxCell>
        <mxCell id="jT86jHlQjgebIUWQx6Aq-85" value="" style="edgeStyle=entityRelationEdgeStyle;fontSize=12;html=1;endArrow=ERmany;startArrow=ERmany;rounded=0;" edge="1" parent="jT86jHlQjgebIUWQx6Aq-87" source="jT86jHlQjgebIUWQx6Aq-1" target="C-vyLk0tnHw3VtMMgP7b-2">
          <mxGeometry width="100" height="100" relative="1" as="geometry">
            <mxPoint x="480.9615384615385" y="340.1941666666667" as="sourcePoint" />
            <mxPoint x="598.2692307692308" y="222.88583333333338" as="targetPoint" />
          </mxGeometry>
        </mxCell>
        <mxCell id="jT86jHlQjgebIUWQx6Aq-86" value="" style="edgeStyle=entityRelationEdgeStyle;fontSize=12;html=1;endArrow=ERoneToMany;rounded=0;" edge="1" parent="jT86jHlQjgebIUWQx6Aq-87" source="jT86jHlQjgebIUWQx6Aq-8" target="C-vyLk0tnHw3VtMMgP7b-2">
          <mxGeometry width="100" height="100" relative="1" as="geometry">
            <mxPoint x="445.76923076923083" y="480.96416666666676" as="sourcePoint" />
            <mxPoint x="563.0769230769231" y="363.65583333333336" as="targetPoint" />
          </mxGeometry>
        </mxCell>
      </root>
    </mxGraphModel>
  </diagram>
</mxfile>
